# xmcd
#
# Track frame offsets:
#	150
#	13224
#	38815
#
# Disc length: 682 seconds
#
# Revision: 0
# Processed by: cddbd v1.5.1PL0 Copyright (c) Steve Scherf et al.
# Submitted via: dBpowerAMP V4.0
#
DISCID=1d02a803
DTITLE=Super Furry Animals - Hello Sunshine
DYEAR=2003
DGENRE=Alternative
TTITLE0=Hello Sunshine (Radio Edit)
TTITLE1=Cowbird
TTITLE2=Sanitizzzed
EXTD=
EXTT0=
EXTT1=
EXTT2=
PLAYORDER=
